<?xml version="1.0" encoding="UTF-8" standalone="no"?>
<!-- Created with Inkscape (http://www.inkscape.org/) -->

<svg
   width="210.49971mm"
   height="210.84039mm"
   viewBox="0 0 210.49971 210.84039"
   version="1.1"
   id="svg1"
   inkscape:version="1.3 (0e150ed, 2023-07-21)"
   sodipodi:docname="day9.svg"
   xmlns:inkscape="http://www.inkscape.org/namespaces/inkscape"
   xmlns:sodipodi="http://sodipodi.sourceforge.net/DTD/sodipodi-0.dtd"
   xmlns="http://www.w3.org/2000/svg"
   xmlns:svg="http://www.w3.org/2000/svg">
  <sodipodi:namedview
     id="namedview1"
     pagecolor="#ffffff"
     bordercolor="#666666"
     borderopacity="1.0"
     inkscape:showpageshadow="true"
     inkscape:pageopacity="0.0"
     inkscape:pagecheckerboard="0"
     inkscape:deskcolor="#d1d1d1"
     inkscape:document-units="mm"
     inkscape:current-layer="layer1"
     showgrid="false"
     showborder="true"
     showguides="true">
    <inkscape:page
       x="0"
       y="0"
       width="210.49971"
       height="210.84039"
       id="page1"
       margin="0mm"
       bleed="0" />
  </sodipodi:namedview>
  <defs
     id="defs1">
    <marker
       style="overflow:visible"
       id="Square"
       refX="0"
       refY="0"
       orient="0,00"
       inkscape:stockid="Square"
       markerWidth="1"
       markerHeight="1"
       viewBox="0 0 1 1"
       inkscape:isstock="true"
       inkscape:collect="always"
       preserveAspectRatio="xMidYMid">
      <path
         transform="scale(0.5)"
         style="fill:context-stroke;fill-rule:evenodd;stroke:none"
         d="M -5,-5 V 5 H 5 V -5 Z"
         id="path18" />
    </marker>
  </defs>
  <g
     inkscape:label="Layer 1"
     inkscape:groupmode="layer"
     id="layer1"
     transform="translate(0.4938277,-24.898775)">
    <path
       style="fill:#00ff00;stroke:#ff0000;stroke-width:0.1;stroke-linecap:round;stroke-linejoin:round;stroke-dasharray:none;stroke-dashoffset:0;marker-mid:url(#Square)"
       d="m 204.41587,130.90227 v 2.5413 h 0.34 v 2.446 h -1.6314 v 2.5559 h 0.5473 v 2.4895 h -0.4063 v 2.4149 h -0.9038 v 2.4708 h -0.3689 v 2.5538 h 0.048 v 2.361 h -0.9701 v 2.5642 h -0.031 v 2.3859 h -0.8063 v 2.7776 h 0.5451 v 2.3507 h -0.9846 v 2.5558 h -0.3772 v 2.3486 h -0.9888 v 1.6521 h -2.674 v 3.0201 h 0.6695 v 1.9776 h -1.764 v 2.6222 h -0.398 v 1.594 h -2.4107 v 2.7694 h -0.197 v 1.5215 h -2.39 v 2.4998 h -0.7317 v 2.3693 h -0.9888 v 2.0045 h -1.5526 v 1.4821 h -2.2366 v 2.0501 h -1.4448 v 2.902 h -0.4291 v 0.6716 h -3.101 v 2.0605 h -1.4448 v 2.7341 h -0.7752 v 0.9494 h -2.6243 v 2.3838 h -1.2023 v 1.1525 h -2.361 v 2.5496 h -1.1338 v 1.5215 h -2.0356 v 0.6509 h -2.6927 v 2.4253 h -1.3453 v 1.2706 h -2.2055 v 0.3856 h -2.7652 v 1.6707 h -1.9112 v 1.6397 h -1.9527 v 1.6687 h -1.963 v 1.0841 h -2.2926 v 1.0343 h -2.3133 v 0.4457 h -2.5724 v 1.3805 h -2.1455 v 1.4718 h -2.133 v -0.6385 h -2.9269 v 1.1795 h -2.2387 v 2.2864 h -1.9236 v -0.3731 h -2.7445 v 0.6218 h -2.4398 v 0.4333 h -2.4812 v 0.035 h -2.5559 v 1.0012 h -2.3651 v 1.053 h -2.39 v -0.3918 h -2.5953 v -0.313 h -2.5538 v 0.6488 h -2.4605 v 0.5349 h -2.4916 v 1.0778 h -2.5019 v -1.6976 h -2.531 v 0.4829 h -2.5206 v 0.5286 h -2.551699 v 0.3545 h -2.5725 v -0.7545 h -2.4791 v 0.012 h -2.558 v -1.9174 h -2.2635 v -0.4498 h -2.4626 v 0.4498 h -2.6554 v -0.1596 h -2.56 v -1.0676 h -2.3402 v -0.6446 h -2.4419 v -0.9515 h -2.3486 v -0.825 h -2.3796 v -0.4208 h -2.5372 v -0.883 h -2.375499 v -2.1372 h -1.8283 v -0.257 h -2.6429 v -0.6488 h -2.4978 v -1.4406 h -2.1061 v -1.6314 h -1.9837 v -1.708 h -1.9092 v -1.3267 h -2.1246 v -1.5712 h -1.9589 v -1.0987 h -2.2823 v -0.6633 h -2.6367 v -2.191 h -1.4966 v -1.9692 h -1.6313 v -0.9183 h -2.5165 v -1.0551 h -2.4564 v -1.8159 h -1.7847 v -3.0326 h -0.541 v -1.0862 h -2.4958 v -1.281 h -2.361 v -3.1839 h -0.172 v -0.939 h -2.8233 v -1.8428 h -1.7681 v -2.6658 h -0.6488 v -1.6707 h -2.019 v -2.6927 h -0.4996 v -2.1247 h -1.3329 v -1.4157 h -2.562 v -2.3217 h -1.0593 v -2.6802 h -0.3358 v -2.0231 h -1.594 v -2.3527 h -0.937 v -2.0045 h -1.7495 v -2.5869 h -0.3689 v -2.2947 h -1.0945 v -2.7424 h 0.2114 v -2.2014 H 9.2799725 v -2.5289 h -0.3254 v -2.3693 h -0.8893 v -2.3818 h -0.8975 v -2.6574 h 0.4166 v -2.5123 h -0.172 v -2.4502 h -0.5063 v -2.3361 h -1.5381 v -2.6388 h 1.0406 v -2.4522 h -0.769 v -2.5123 h -0.033 v -2.5082 h -0.1555 v -0.7877 H 197.25437 v -4.2597 H 4.7691725 v -2.5372 h -0.013 v -2.5248 h 0.199 v -2.417 h 1.2044 v -2.4169 h 0.8374 v -2.5476 h -0.1202 v -2.4398 h 0.599 v -2.5102 h 0.2301 v -2.444 h 0.5784 v -2.533 h 0.2404 v -2.616 h 0.046 v -2.385895 h 0.8644 v -2.4149 h 0.7731995 v -2.2345 h 1.2541 v -1.9195 h 1.9733 v -3.0658 h -0.7711 v -2.1516 h 1.4034 v -1.6853 h 2.2926 v -2.5165 h 0.597 v -2.0873 h 1.4199 v -2.5331 h 0.6571 v -2.4439 h 0.8727 v -1.4365 h 2.419 v -2.8689 h 0.2964 v -1.4489 h 2.3113 v -2.5393 h 0.8519 v -1.6583 h 1.9838 v -2.0687 h 1.4759 v -0.8458 h 2.8274 v -3.0865 h 0.4 v -0.5265 h 3.0451 v -2.6657 h 0.9307 v -1.2375 h 2.2823 v -2.1206 h 1.5007 v -0.5451 h 2.8046 v -1.5775 h 1.9361 v -2.8999 h 0.9867 v -0.823 h 2.5164 v -0.6985 h 2.5497 v -1.1608 h 2.22 v -1.9983 h 1.7288 v -0.682 h 2.4937 v -0.9742 h 2.3112 v -2.7652 h 1.4407 v -0.05 h 2.7652 v -0.4125 h 2.5517 v -2.7341 h 1.6148 v 0.4685 h 2.875099 v -0.5887 h 2.4501 v -0.8437 h 2.3589 v -2.0024 h 2.048 v 0.043 h 2.6284 v 0.1306 h 2.6119 v -0.5783 h 2.4377 v -0.5701 h 2.4439 v -1.5463 h 2.3133 v -0.2944 h 2.5206 v 0.2446 h 2.5704 v 0.4353 h 2.5579 v -0.5451 h 2.487499 v -0.5307 h 2.5102 v 1.2665 h 2.5186 v -0.3917 h 2.5123 v 0.6529 h 2.475 v -0.8644 h 2.5787 v 0.033 h 2.533 v 1.1898 h 2.388 v 0.1327 h 2.5165 v 0.9038 h 2.3838 v -0.8458 h 2.7382 v 1.6708 h 2.2035 v -0.4291 h 2.7072 v 0.427 h 2.5144 v 1.8407 h 2.0729 v 1.1152 h 2.2698 v 0.825 h 2.363 v -0.3441 h 2.844 v 2.3258 h 1.7495 v 0.5244 h 2.5165 v 0.027 h 2.7984 v 2.4895 h 1.5567 v 0.093 h 2.8295 v 2.2117 h 1.6334 v 0.3856 h 2.7321 v 2.4315 h 1.4261 v 0.8374 h 2.4812 v 2.417 h 1.3474 v 1.0883 h 2.3237 v 1.5277 h 1.9941 v 0.713 h 2.7134 v 2.162 h 1.4697 v 2.4253 h 1.1691 v 1.791 h 1.7495 v 0.9639 h 2.6346 v 2.2843 h 1.2437 v 2.1744 h 1.3267 v 2.0563 h 1.4448 v 1.7765 h 1.7972 v 2.2781 h 1.1359 v 1.5836 h 2.1122 v 1.6666 h 2.0646 v 2.332 h 1.0572 v 2.2346 h 1.194 v 2.1869 h 1.2706 v 2.5227 h 0.6261 v 1.7184 h 2.2283 v 2.6097 h 0.4063 v 2.3838 h 0.8457 v 2.558 h 0.3835 v 1.8407 h 2.2947 v 2.5869 h 0.286 v 2.696795 h -0.1741 v 2.4004 h 0.7276 v 2.1765 h 1.6313 v 2.5538 h 0.1866 v 2.5725 h -0.017 v 2.4853 h 0.3566 v 2.3756 h 1.0841 v 2.6139 h -0.6074 v 2.3734 h 1.48 v 2.6056 h -1.0074 v 2.4957 h 0.1431 v 2.4875 h 0.8685 v 2.5248"
       id="path2"
       sodipodi:nodetypes="cccc" />
  </g>
</svg>
